<?xml version="1.0" encoding="UTF-8"?>
<!DOCTYPE svg PUBLIC "-//W3C//DTD SVG 1.1//EN" "http://www.w3.org/Graphics/SVG/1.1/DTD/svg11.dtd">
<!-- Creator: CorelDRAW 2021 (64 Bit) -->
<svg xmlns="http://www.w3.org/2000/svg" xml:space="preserve" width="3.90084cm" height="5.88154cm" version="1.1" style="shape-rendering:geometricPrecision; text-rendering:geometricPrecision; image-rendering:optimizeQuality; fill-rule:evenodd; clip-rule:evenodd"
viewBox="0 0 822.62 1240.32"
 xmlns:xlink="http://www.w3.org/1999/xlink"
 xmlns:xodm="http://www.corel.com/coreldraw/odm/2003">
 <defs>
  <style type="text/css">
   <![CDATA[
    .fil0 {fill:white}
   ]]>
  </style>
 </defs>
 <g id="Camada_x0020_1">
  <metadata id="CorelCorpID_0Corel-Layer"/>
  <path class="fil0" d="M64.73 136.56c5.27,182.35 44.15,289.09 178.46,391.24 79.21,60.25 151.14,77.57 58.28,143.14 -19.79,13.97 -35.43,23.03 -55.81,38.27 -8.74,6.54 -18.02,13.32 -25.76,19.51 -114.21,91.33 -152.25,218.33 -155.05,373.34 -38.13,4.08 -34.99,19.55 -35.57,57.17l764.07 -0.38c-0.47,-35.23 1.85,-54.49 -35.59,-56.19 -1.71,-121.06 -24.35,-218.43 -83.16,-298.45 -83.12,-113.1 -196.63,-137.21 -196.39,-185.04 0.39,-78.15 273.16,-80.88 279.55,-483.21 37.75,-1.9 35.3,-20.43 35.52,-56.4l-764.02 0.16c0.64,37.45 -2.9,52.51 35.48,56.82zm84.85 20.54c7.49,0 14.99,0 22.48,0 -2.8,79.95 10.02,152.01 34.56,218.18 -36.3,-54.42 -57.45,-124.89 -57.04,-218.18zm261.98 407.07l11.1 -13.07c3.98,-5.34 5.18,-7.87 9.49,-13.03 8.27,-9.92 14.02,-12.82 24.21,-20.95 44.13,-35.24 111.01,-66.9 146.88,-122.89 -173.09,35.69 -221.78,24.13 -383.86,-0.03 17.06,29.37 61.42,63.8 94,86.02 74.61,50.88 42.04,23.81 98.19,83.95zm401.52 -507c13.91,-9.12 8.35,-36.56 8.81,-56.77l-821.06 -0.4c1.97,75.25 -22.56,64.08 158.48,64.08l436.73 0.01c34.42,-0.01 201.84,9.39 217.04,-6.92zm-812.49 1181.32l158.72 0.24c209.38,0.46 457.04,3.52 662.61,-0.35 -0.8,-40 5.86,-63.83 -30.1,-63.83l-760.51 0c-40.22,0.03 -29.85,28.64 -30.72,63.94zm144.59 -159.09l532.15 -0.32c-5.38,-216.48 -110.3,-158.24 -233.53,-281.32 -28.62,-28.59 -16.59,-22.55 -32.25,-43.92 -13.54,18.73 -12.73,25.12 -30.29,42.1 -6.11,5.91 -10.86,11.96 -18.83,18.75 -24.04,20.5 -85.45,55.15 -113.26,71.26 -31.93,18.49 -63.33,36.73 -80.06,66.88 -18.13,32.66 -22.49,85.65 -23.94,126.58zm-24.51 23.56l581.27 -0.09c-4.57,-200.03 -57.28,-281.56 -196.03,-374.72 -34.58,-23.22 -84.06,-53.97 -84.48,-109 -0.5,-65.23 80.24,-104.47 137.65,-146.11 18.85,-13.67 35.32,-32.21 50.17,-47.76 66.54,-69.66 90.28,-166.48 92.69,-289.47l-581.31 -0.07c5.63,178.9 45.59,279.66 196.3,374.71 123.56,77.92 105.11,145.74 2.55,216.21 -44.19,30.36 -66.38,42.18 -105.62,86.42 -8.98,10.12 -12.63,13.21 -20.67,24.47 -58.83,82.46 -69.39,158.87 -72.51,265.4z"/>
 </g>
</svg>
