<?xml version="1.0" encoding="UTF-8"?>
<!DOCTYPE svg PUBLIC "-//W3C//DTD SVG 1.1//EN" "http://www.w3.org/Graphics/SVG/1.1/DTD/svg11.dtd">
<!-- Creator: CorelDRAW 2021 (64 Bit) -->
<svg xmlns="http://www.w3.org/2000/svg" xml:space="preserve" width="8.51651cm" height="6.64972cm" version="1.1" style="shape-rendering:geometricPrecision; text-rendering:geometricPrecision; image-rendering:optimizeQuality; fill-rule:evenodd; clip-rule:evenodd"
viewBox="0 0 14692.55 11471.99"
 xmlns:xlink="http://www.w3.org/1999/xlink"
 xmlns:xodm="http://www.corel.com/coreldraw/odm/2003">
 <defs>
  <style type="text/css">
   <![CDATA[
    .fil0 {fill:white;fill-rule:nonzero}
   ]]>
  </style>
 </defs>
 <g id="Camada_x0020_1">
  <metadata id="CorelCorpID_0Corel-Layer"/>
  <g id="_1672000294544">
   <g>
    <path class="fil0" d="M4085.7 1621.02l1023.16 0c76.24,0 139.58,55.27 152.18,127.94l279.81 1066.16c139.14,38.52 275.1,85.45 407.23,140.21l0.6 0c133.68,55.4 263.02,118.62 387.39,189.06l963.17 -562.72c61.92,-36.14 138.62,-24.29 187.03,24.15l723.46 723.47c51.81,51.82 59.1,131.36 21.84,190.96l-560.41 959.24c69.94,123.59 133.06,252.91 188.77,387.32l0.22 -0.09c54.64,131.82 101.6,268.04 140.29,407.99l1078.24 282.98c69.39,17.98 115.4,80.51 115.35,149l0.5 0 0 1023.16c0,76.24 -55.27,139.58 -127.92,152.18l-1066.11 279.77c-38.68,139.91 -85.64,276.06 -140.26,407.85l-3.5 7.82c-54.93,131.63 -116.97,258.35 -185.56,379.58l562.72 963.22c36.14,61.9 24.29,138.6 -24.15,187.01l-723.47 723.46c-51.82,51.82 -131.36,59.1 -190.96,21.84l-959.24 -560.41c-123.61,69.94 -252.91,133.06 -387.32,188.79l0.09 0.21c-131.82,54.64 -268.04,101.6 -407.99,140.31l-282.98 1078.24c-17.98,69.37 -80.51,115.38 -149,115.33l0 0.52 -1023.16 0c-76.24,0 -139.58,-55.27 -152.18,-127.94l-279.79 -1066.11c-139.91,-38.7 -276.1,-85.64 -407.89,-140.26l-7.82 -3.5c-131.61,-54.91 -258.33,-116.98 -379.56,-185.58l-963.19 562.72c-61.9,36.14 -138.6,24.29 -187.01,-24.15l-723.47 -723.46c-51.82,-51.82 -59.1,-131.36 -21.86,-190.96l560.43 -959.27c-69.94,-123.59 -133.08,-252.89 -188.79,-387.3l-0.22 0.09c-54.64,-131.82 -101.6,-268.02 -140.31,-408.02l-1078.21 -282.95c-69.37,-17.98 -115.38,-80.51 -115.35,-149l-0.5 0 0 -1023.16c0,-76.24 55.27,-139.58 127.94,-152.18l1066.15 -279.81c38.51,-139.14 85.47,-275.1 140.22,-407.21l0 -0.6c55.4,-133.72 118.62,-263.06 189.08,-387.42l-562.72 -963.17c-36.14,-61.9 -24.29,-138.6 24.15,-187.01l723.46 -723.47c51.82,-51.82 131.34,-59.1 190.96,-21.86l959.25 560.43c123.61,-69.94 252.91,-133.06 387.32,-188.79l-0.09 -0.21c131.82,-54.65 268.02,-101.6 408.01,-140.33l282.96 -1078.21c17.98,-69.37 80.51,-115.38 149,-115.33l0 -0.52zm904.55 308.93l-785.94 0 -273.8 1043.32c-11.94,55.96 -54.67,103.05 -113.95,117.62 -155.15,38.59 -306.39,88.67 -452.58,149.25l-0.6 0c-144.38,59.81 -284.85,130.87 -420.34,212.08 -47.43,31.04 -110.26,34.75 -162.5,4.23l-938.09 -548.02 -555.03 555.04 548.02 938.07c27.36,47.17 28.95,107.46 -1.21,157.46 -81.98,136.2 -154.04,278.63 -215.18,426.16l-0.22 -0.09c-60.17,145.36 -110.17,296.56 -148.94,452.48 -13.25,53.08 -54.33,97.52 -111,112.21l-1049.96 275.56 0 785.94 1043.32 273.8c55.95,11.94 103.05,54.65 117.62,113.95 38.59,155.15 88.67,306.39 149.25,452.58l0 0.6c59.81,144.38 130.86,284.85 212.08,420.34 31.04,47.43 34.75,110.24 4.23,162.5l-548.04 938.09 555.06 555.03 938.05 -548.02c47.18,-27.36 107.46,-28.95 157.46,1.21 134.82,81.14 274.65,152.21 418.32,212.18l7.83 3c146.16,60.57 297.32,110.6 452.45,149.18 53.08,13.25 97.52,54.34 112.22,111.02l275.53 1049.93 785.94 0 273.82 -1043.34c11.94,-55.96 54.67,-103.05 113.95,-117.62 155.13,-38.59 306.36,-88.66 452.57,-149.25l0.6 0c144.38,-59.81 284.85,-130.87 420.34,-212.08 47.43,-31.05 110.24,-34.75 162.5,-4.23l938.07 548.02 555.04 -555.03 -548.02 -938.09c-27.36,-47.17 -28.95,-107.46 1.21,-157.46 81.14,-134.82 152.2,-274.63 212.16,-418.31l2.98 -7.85c60.57,-146.16 110.64,-297.3 149.19,-452.41 13.25,-53.1 54.33,-97.52 111,-112.22l1049.95 -275.53 0 -785.94 -1043.36 -273.82c-55.95,-11.94 -103.03,-54.67 -117.61,-113.95 -38.59,-155.15 -88.66,-306.36 -149.26,-452.57l0 -0.6c-59.79,-144.38 -130.86,-284.85 -212.08,-420.36 -31.04,-47.41 -34.73,-110.24 -4.21,-162.48l548.02 -938.07 -555.03 -555.04 -938.09 548.02c-47.17,27.36 -107.46,28.95 -157.46,-1.21 -136.19,-81.98 -278.6,-154.04 -426.12,-215.16l0.09 -0.21c-145.35,-60.17 -296.56,-110.15 -452.5,-148.95 -53.08,-13.23 -97.52,-54.33 -112.21,-111l-275.56 -1049.96z"/>
    <path class="fil0" d="M4597.27 4092.09c587.1,0 1118.68,237.99 1503.45,622.76 384.77,384.77 622.76,916.35 622.76,1503.45 0,587.08 -237.99,1118.68 -622.76,1503.45 -384.77,384.75 -916.35,622.76 -1503.45,622.76 -587.08,0 -1118.68,-238.01 -1503.45,-622.76 -384.75,-384.77 -622.77,-916.37 -622.77,-1503.45 0,-587.1 238.02,-1118.68 622.77,-1503.45 384.77,-384.77 916.37,-622.76 1503.45,-622.76zm1285.06 841.13c-328.82,-328.8 -783.16,-532.22 -1285.06,-532.22 -501.87,0 -956.25,203.42 -1285.07,532.22 -328.82,328.85 -532.22,783.18 -532.22,1285.07 0,501.86 203.4,956.22 532.22,1285.07 328.84,328.82 783.2,532.22 1285.07,532.22 501.89,0 956.22,-203.4 1285.06,-532.22 328.82,-328.82 532.24,-783.22 532.24,-1285.07 0,-501.89 -203.42,-956.25 -532.24,-1285.07z"/>
   </g>
   <g>
    <path class="fil0" d="M12372.52 9.02l647.29 238.18c70.59,25.86 110.86,97.99 99.16,169.55l-68.3 709.98c73.13,53.7 142.03,110.5 206.56,170.05 65.85,60.78 128.09,125.06 186.53,192.41l712.71 -126.87c73.27,-12.78 143.54,28.4 169.97,94.89l285.83 618.65c31.33,67.96 9.02,146.93 -49.32,189.25l-550.64 454.03c13.27,87.55 21.84,176.71 25.48,267.06 3.57,89.19 2.31,178.69 -3.99,268.06l593.03 413.77c58.48,40.87 79.82,115.05 56.34,179.04l0.36 0.14 -238.16 647.29c-25.88,70.59 -98.01,110.86 -169.57,99.16l-709.95 -68.3c-53.7,73.15 -110.53,142.07 -170.07,206.56 -60.78,65.85 -125.08,128.08 -192.41,186.51l126.89 712.73c12.78,73.27 -28.4,143.54 -94.9,169.97l-618.67 285.83c-67.96,31.33 -146.93,9.02 -189.24,-49.32l-454.02 -550.64c-87.59,13.3 -176.76,21.86 -267.13,25.48 -89.19,3.61 -178.68,2.33 -268.01,-3.99l-413.79 593.03c-40.87,58.48 -115.05,79.82 -179.04,56.34l-0.14 0.36 -647.27 -238.16c-70.59,-25.88 -110.88,-98.01 -99.16,-169.57l68.3 -709.95c-73.15,-53.7 -142.07,-110.53 -206.59,-170.1 -65.85,-60.76 -128.08,-125.06 -186.46,-192.39l-712.74 126.9c-73.27,12.78 -143.5,-28.4 -169.93,-94.9l-285.9 -618.67c-31.31,-67.96 -9.01,-146.93 49.32,-189.24l550.66 -454.07c-13.28,-87.57 -21.84,-176.76 -25.48,-267.13 -3.59,-89.17 -2.33,-178.64 3.99,-268.01l-593.01 -413.73c-58.5,-40.87 -79.84,-115.05 -56.34,-179.04l-0.38 -0.14 238.18 -647.25c25.86,-70.59 97.97,-110.88 169.55,-99.16l710 68.28c53.69,-73.15 110.52,-142.05 170.05,-206.56 60.76,-65.85 125.06,-128.11 192.39,-186.51l-126.87 -712.73c-12.78,-73.27 28.4,-143.5 94.89,-169.93l618.65 -285.9c67.96,-31.31 146.93,-9.01 189.25,49.32l454.05 550.66c87.59,-13.28 176.76,-21.84 267.13,-25.48 89.19,-3.59 178.66,-2.33 268.01,3.99l413.73 -593.01c40.87,-58.5 115.05,-79.84 179.04,-56.34l0.14 -0.38zm429.57 486.74l-424.65 -156.27 -391.15 560.67c-30.05,49.36 -86.76,79.72 -148.02,73.23 -106,-11.56 -211.15,-15.11 -314.57,-10.94 -104.25,4.19 -208.56,16.42 -312.02,36.21l-0.07 -0.28c-53.46,10.18 -110.72,-8.42 -147.73,-53.41l-441.18 -535.07 -410.28 189.6 121.69 683.54 -0.24 0.05c9.28,53.45 -9.99,110.19 -55.26,146.57 -81.2,65.19 -158.1,136.82 -229.67,214.41 -70.16,75.99 -134.41,156.28 -191.84,240.37 -29.83,48.24 -85.24,78.12 -145.48,72.42l-690.54 -66.42 -156.27 424.65 560.67 391.17c49.36,30.05 79.72,86.74 73.23,148.02 -11.56,106 -15.11,211.13 -10.94,314.57 4.19,104.24 16.42,208.54 36.21,312l-0.28 0.07c10.18,53.48 -8.42,110.72 -53.41,147.74l-535.07 441.18 189.6 410.27 683.54 -121.69 0.05 0.24c53.45,-9.28 110.19,9.99 146.57,55.26 65.21,81.24 136.84,158.1 214.37,229.67 76.05,70.2 156.32,134.46 240.4,191.89 48.24,29.81 78.12,85.24 72.42,145.48l-66.42 690.5 424.67 156.25 391.2 -560.67c30.04,-49.36 86.76,-79.72 148,-73.22 106,11.56 211.13,15.1 314.57,10.92 104.2,-4.17 208.54,-16.39 311.98,-36.23l0.07 0.28c53.48,-10.18 110.72,8.42 147.74,53.43l441.16 535.05 410.27 -189.56 -121.66 -683.54 0.24 -0.03c-9.28,-53.46 9.97,-110.2 55.24,-146.59 81.2,-65.21 158.1,-136.82 229.67,-214.41 70.18,-76.01 134.44,-156.3 191.87,-240.39 29.81,-48.22 85.24,-78.1 145.48,-72.41l690.5 66.4 156.25 -424.67 -560.67 -391.2c-49.36,-30.04 -79.72,-86.76 -73.22,-148 11.56,-106 15.08,-211.16 10.92,-314.6 -4.21,-104.2 -16.39,-208.52 -36.23,-311.93l0.28 -0.07c-10.18,-53.46 8.42,-110.72 53.43,-147.73l535.05 -441.18 -189.56 -410.25 -683.54 121.66 -0.03 -0.24c-53.46,9.28 -110.2,-9.99 -146.59,-55.26 -65.21,-81.22 -136.86,-158.1 -214.41,-229.69 -76.01,-70.16 -156.3,-134.39 -240.39,-191.82 -48.22,-29.81 -78.1,-85.24 -72.41,-145.48l66.4 -690.54z"/>
    <path class="fil0" d="M12120.99 1691.41c384.46,141.41 675.24,425.4 834.52,770.14 159.2,344.57 187.03,749.9 45.67,1134.12 -141.47,384.44 -425.43,675.25 -770.16,834.54 -344.59,159.2 -749.9,187.03 -1134.14,45.67 -384.44,-141.47 -675.25,-425.43 -834.52,-770.16 -155.47,-336.48 -185.61,-730.89 -55.31,-1107.03l0 -0.9 9.66 -26.24c141.45,-384.44 425.41,-675.22 770.14,-834.49 336.5,-155.49 730.86,-185.61 1107,-55.31l0.9 0 26.24 9.66zm554.58 899.24c-125.9,-272.46 -355.72,-497.06 -659.57,-609.18l-1.19 -0.45c-304.7,-112.1 -625.9,-90.14 -898.86,35.97 -272.46,125.92 -497.04,355.72 -609.18,659.59l-0.45 1.16c-112.1,304.7 -90.14,625.91 35.97,898.87 126.08,272.82 356.32,497.63 660.76,609.65 304.68,112.1 625.9,90.12 898.86,-35.99 272.82,-126.06 497.63,-356.3 609.65,-660.76 112.1,-304.67 90.12,-625.9 -35.99,-898.86z"/>
   </g>
   <g>
    <path class="fil0" d="M9626.67 6587.06l518.88 -165.36c67.99,-21.55 139.88,6.64 176.35,64.19l0.41 -0.26 301.73 475.79c67.7,-1.26 134.56,0.97 200.36,6.5 67.4,5.69 134.15,14.8 199.91,27.19l377.02 -418.27c49.65,-55.17 130.11,-66.14 191.89,-30.33l485.28 250.72c66.32,34.19 97.32,109.88 77.67,178.99l-121.25 541.43c48.49,46.7 94.49,95.7 137.65,146.85 42.8,50.65 83.45,104.13 121.69,160.24l562.94 -29.19c74.67,-3.8 139.6,46.23 157.18,116.09l165.41 518.85c21.55,67.99 -6.66,139.88 -64.21,176.35l0.28 0.41 -475.81 301.73c1.28,67.7 -0.95,134.58 -6.49,200.45 -5.69,67.39 -14.8,134.12 -27.19,199.86l418.25 377c55.19,49.65 66.16,130.11 30.35,191.87l-250.72 485.29c-34.19,66.32 -109.86,97.32 -178.97,77.67l-541.48 -121.23c-46.67,48.48 -95.66,94.45 -146.8,137.62 -50.65,42.8 -104.13,83.45 -160.25,121.69l29.19 562.93c3.78,74.68 -46.23,139.62 -116.09,157.2l-518.87 165.41c-67.99,21.53 -139.9,-6.66 -176.35,-64.21l-0.43 0.26 -301.73 -475.75c-67.68,1.26 -134.58,-0.97 -200.43,-6.5 -67.37,-5.69 -134.1,-14.8 -199.86,-27.19l-376.95 418.24c-49.65,55.17 -130.11,66.16 -191.87,30.35l-485.35 -250.74c-66.33,-34.19 -97.33,-109.88 -77.67,-178.97l121.23 -541.45c-48.49,-46.7 -94.45,-95.66 -137.64,-146.8 -42.78,-50.69 -83.45,-104.18 -121.71,-160.3l-562.91 29.22c-74.67,3.78 -139.62,-46.23 -157.2,-116.09l-165.41 -518.85c-21.53,-67.99 6.66,-139.88 64.21,-176.35l-0.26 -0.41 475.81 -301.77c-1.26,-67.71 0.95,-134.6 6.5,-200.43 5.69,-67.39 14.8,-134.08 27.19,-199.81l-418.25 -377.02c-55.17,-49.65 -66.16,-130.13 -30.35,-191.87l250.7 -485.31c34.19,-66.33 109.88,-97.33 178.99,-77.67l541.47 121.23c46.68,-48.49 95.7,-94.49 146.86,-137.67 50.65,-42.8 104.1,-83.45 160.22,-121.68l-29.22 -562.93c-3.8,-74.67 46.22,-139.64 116.07,-157.22zm498.47 163.96l-300.73 95.83 27.69 533.13c2.57,54.22 -23.55,108.24 -72.99,138.77 -70.16,43.22 -137.13,91.92 -200.43,145.4 -64.19,54.21 -123.32,112.19 -176.97,173.31 -35.85,40.82 -92.25,61.42 -149.02,48.87l-521.01 -116.66 -145.09 280.81 390.62 352.09c44.37,36.23 66.78,95.83 52.69,155.32 -19.05,80.22 -32.24,161.96 -39.2,244.44 -6.8,80.27 -7.92,160.74 -3.14,240.58 6.35,56.79 -19.22,114.9 -70.7,147.56l-450.81 285.88 95.87 300.72 533.1 -27.69c54.22,-2.57 108.22,23.55 138.77,73.01 43.25,70.18 91.97,137.19 145.45,200.52 54.15,64.13 112.17,123.23 173.26,176.88 40.84,35.87 61.43,92.26 48.89,149.04l-116.64 520.97 280.84 145.09 352.04 -390.56c36.21,-44.39 95.82,-66.82 155.32,-52.72 80.22,19.08 161.98,32.28 244.48,39.23 80.24,6.76 160.67,7.9 240.53,3.11 56.79,-6.35 114.93,19.24 147.59,70.72l285.86 450.77 300.73 -95.87 -27.64 -533.12c-2.57,-54.22 23.55,-108.22 72.99,-138.76 70.15,-43.25 137.13,-91.97 200.45,-145.45 64.14,-54.15 123.25,-112.17 176.9,-173.26 35.87,-40.84 92.25,-61.43 149.04,-48.89l521.02 116.66 145.05 -280.79 -390.58 -352.08c-44.41,-36.21 -66.82,-95.82 -52.72,-155.32 19.08,-80.24 32.28,-161.99 39.23,-244.48 6.76,-80.27 7.9,-160.7 3.11,-240.56 -6.35,-56.78 19.22,-114.91 70.72,-147.59l450.79 -285.86 -95.85 -300.72 -533.15 27.67c-54.22,2.57 -108.24,-23.55 -138.77,-72.99 -43.2,-70.16 -91.94,-137.13 -145.42,-200.47 -54.17,-64.16 -112.17,-123.28 -173.28,-176.93 -40.84,-35.85 -61.43,-92.25 -48.89,-149.04l116.66 -520.99 -280.81 -145.07 -352.08 390.6c-36.23,44.37 -95.83,66.78 -155.3,52.69 -80.27,-19.05 -162.05,-32.24 -244.54,-39.21 -80.26,-6.76 -160.65,-7.9 -240.51,-3.12 -56.79,6.33 -114.88,-19.22 -147.54,-70.72l-285.88 -450.76z"/>
    <path class="fil0" d="M10380.74 8073.14l-2 0.64c-238.9,76.74 -424.52,243.1 -531.56,450.26 -107.38,207.85 -135.53,456.54 -59,696.75l0.29 0.91c76.56,239.42 243.13,425.45 450.58,532.62 207.83,107.36 456.52,135.55 696.63,59.05l0.22 -0.07c239.84,-76.44 426.16,-243.15 533.48,-450.86 107.25,-207.64 135.44,-456.09 59.23,-696.04l-8.09 -24.27c-79.62,-228.52 -242.13,-406.21 -443.03,-509.98 -207.83,-107.38 -456.57,-135.53 -696.75,-59zm-67.23 -301.06c313.28,-92.44 635.26,-53.29 905.17,86.17 277.51,143.36 500.42,392.86 602.9,714.49l7.85 24.67 0 1.04c92.45,313.28 53.29,635.23 -86.16,905.19 -143.1,276.96 -391.93,499.51 -712.66,602.28l-1.95 0.64c-321.23,102.37 -653.47,64.95 -930.81,-78.32 -276.93,-143.1 -499.49,-391.91 -602.28,-712.64l-8.47 -25.41 0 -2.16c-92.44,-313.26 -53.29,-635.23 86.17,-905.19 143.38,-277.46 392.86,-500.37 714.5,-602.88l24.65 -7.87 1.07 0z"/>
   </g>
  </g>
 </g>
</svg>
