<?xml version="1.0" encoding="UTF-8"?>
<!DOCTYPE svg PUBLIC "-//W3C//DTD SVG 1.1//EN" "http://www.w3.org/Graphics/SVG/1.1/DTD/svg11.dtd">
<!-- Creator: CorelDRAW 2021 (64 Bit) -->
<svg xmlns="http://www.w3.org/2000/svg" xml:space="preserve" width="8.51651cm" height="7.85098cm" version="1.1" style="shape-rendering:geometricPrecision; text-rendering:geometricPrecision; image-rendering:optimizeQuality; fill-rule:evenodd; clip-rule:evenodd"
viewBox="0 0 3026.58 2790.06"
 xmlns:xlink="http://www.w3.org/1999/xlink"
 xmlns:xodm="http://www.corel.com/coreldraw/odm/2003">
 <defs>
  <style type="text/css">
   <![CDATA[
    .fil0 {fill:white}
   ]]>
  </style>
 </defs>
 <g id="Camada_x0020_1">
  <metadata id="CorelCorpID_0Corel-Layer"/>
  <g id="_1671716181376">
   <path class="fil0" d="M-0 1633.77c599.87,-54.72 1220.57,-234.21 1778.05,-774.93l-167.12 -157.41 629.02 -89.56 -51.76 633.25 -176.82 -166.55c-510.28,367.02 -1169.7,685.62 -2011.36,555.19z"/>
   <path class="fil0" d="M2678.88 -0c192.03,0 347.7,155.67 347.7,347.7 0,192.03 -155.67,347.7 -347.7,347.7 -192.03,0 -347.7,-155.67 -347.7,-347.7 0,-192.03 155.67,-347.7 347.7,-347.7zm17.26 101.74l0 28.06c18.52,1.95 34.44,5.75 47.64,11.42 13.27,5.76 24.79,14.35 34.71,25.94 7.8,8.86 13.81,17.98 18.06,27.28 4.25,9.39 6.38,17.89 6.38,25.68 0,8.67 -3.19,16.19 -9.47,22.49 -6.38,6.29 -13.99,9.47 -23.02,9.47 -16.99,0 -28.06,-9.21 -33.03,-27.54 -5.75,-21.61 -19.48,-36.04 -41.26,-43.11l0 107.93c21.43,5.84 38.6,11.24 51.26,16.12 12.76,4.78 24.18,11.77 34.18,20.98 10.72,9.48 19.04,20.9 24.88,34.09 5.76,13.27 8.69,27.71 8.69,43.47 0,19.75 -4.61,38.16 -13.9,55.35 -9.3,17.26 -22.94,31.25 -40.91,42.23 -18.06,10.89 -39.4,17.36 -64.2,19.39l0 64.64c0,10.19 -0.96,17.62 -3.01,22.31 -1.94,4.7 -6.29,7 -13.1,7 -6.2,0 -10.54,-1.87 -13.11,-5.68 -2.48,-3.8 -3.72,-9.74 -3.72,-17.7l0 -70.04c-20.18,-2.22 -37.89,-6.99 -53.03,-14.26 -15.14,-7.26 -27.8,-16.28 -37.9,-27.09 -10.09,-10.89 -17.62,-22.13 -22.4,-33.74 -4.88,-11.68 -7.26,-23.2 -7.26,-34.44 0,-8.23 3.18,-15.75 9.74,-22.4 6.45,-6.64 14.51,-10 24.17,-10 7.8,0 14.35,1.77 19.75,5.39 5.32,3.64 9.03,8.77 11.16,15.33 4.6,14.16 8.67,25.05 12.13,32.57 3.54,7.53 8.76,14.44 15.75,20.63 6.99,6.2 16.29,10.98 27.89,14.26l0 -120.6c-23.2,-6.47 -42.5,-13.55 -58.08,-21.43 -15.58,-7.87 -28.24,-19.02 -37.89,-33.55 -9.65,-14.51 -14.52,-33.2 -14.52,-56.05 0,-29.75 9.47,-54.18 28.43,-73.14 18.94,-19.04 46.3,-30.1 82.07,-33.2l0 -27.54c0,-14.51 5.49,-21.78 16.38,-21.78 11.07,0 16.56,7.08 16.56,21.26zm-32.94 177.97l0 -99.34c-14.51,4.34 -25.85,10 -33.99,17.08 -8.15,7.08 -12.22,17.89 -12.22,32.24 0,13.64 3.8,23.99 11.42,30.99 7.62,6.99 19.22,13.37 34.8,19.04zm32.94 77.03l0 113.7c17.45,-3.46 30.91,-10.46 40.47,-21 9.47,-10.62 14.25,-22.84 14.25,-36.91 0,-15.05 -4.6,-26.66 -13.9,-34.89 -9.21,-8.24 -22.85,-15.23 -40.82,-20.9z"/>
   <rect class="fil0" x="-0" y="1914.24" width="604.14" height="875.82" rx="68.18" ry="54.89"/>
   <rect class="fil0" x="807.48" y="1770.43" width="604.14" height="1019.62" rx="68.18" ry="63.9"/>
   <rect class="fil0" x="1614.95" y="1466.13" width="604.14" height="1323.93" rx="68.18" ry="82.97"/>
   <rect class="fil0" x="2422.43" y="979.69" width="604.14" height="1810.37" rx="68.18" ry="113.45"/>
  </g>
 </g>
</svg>
