<?xml version="1.0" encoding="UTF-8"?>
<!DOCTYPE svg PUBLIC "-//W3C//DTD SVG 1.1//EN" "http://www.w3.org/Graphics/SVG/1.1/DTD/svg11.dtd">
<!-- Creator: CorelDRAW 2021 (64 Bit) -->
<svg xmlns="http://www.w3.org/2000/svg" xml:space="preserve" width="7.85098cm" height="7.85098cm" version="1.1" style="shape-rendering:geometricPrecision; text-rendering:geometricPrecision; image-rendering:optimizeQuality; fill-rule:evenodd; clip-rule:evenodd"
viewBox="0 0 12377.88 12377.88"
 xmlns:xlink="http://www.w3.org/1999/xlink"
 xmlns:xodm="http://www.corel.com/coreldraw/odm/2003">
 <defs>
  <style type="text/css">
   <![CDATA[
    .str0 {stroke:black;stroke-width:31.53;stroke-miterlimit:22.9256}
    .fil0 {fill:white}
    .fil1 {fill:white;fill-rule:nonzero}
   ]]>
  </style>
 </defs>
 <g id="Camada_x0020_1">
  <metadata id="CorelCorpID_0Corel-Layer"/>
  <g id="_1671717213952">
   <path class="fil0 str0" d="M9642.98 9025.77c254.57,-50.61 529.45,22.25 725.68,218.47l815.59 815.59c312.06,312.06 312.1,822.78 0,1134.87 -312.09,312.1 -822.77,312.1 -1134.87,0l-815.59 -815.59c-196.27,-196.27 -269.08,-471.1 -218.47,-725.68l-285.87 -285.85c-159.16,87.39 -357.02,81.2 -510.66,-18.65 -615.84,397.76 -1322.82,596.67 -2029.8,596.67 -958.76,0.02 -1917.51,-365.74 -2648.96,-1097.19 -731.47,-731.47 -1097.21,-1690.2 -1097.19,-2648.96 -0.02,-958.76 365.72,-1917.51 1097.19,-2648.96 731.45,-731.45 1690.2,-1097.21 2648.96,-1097.19 958.73,0 1917.5,365.72 2648.96,1097.19 731.45,731.45 1097.19,1690.23 1097.19,2648.96 0,706.98 -198.92,1413.95 -596.67,2029.8 99.83,153.62 106.04,351.5 18.65,510.66l285.85 285.87zm-3453.99 -5793.89c-759.42,-0.02 -1518.88,289.75 -2098.35,869.21 -579.48,579.46 -869.23,1338.93 -869.21,2098.35 -0.02,759.4 289.73,1518.87 869.21,2098.35 579.46,579.46 1338.93,869.21 2098.35,869.2 759.39,0 1518.87,-289.73 2098.35,-869.2 579.46,-579.46 869.2,-1338.96 869.2,-2098.35 0,-759.4 -289.73,-1518.88 -869.2,-2098.35 -579.48,-579.48 -1338.96,-869.21 -2098.35,-869.21z"/>
   <path class="fil1" d="M6205.13 8277.61c-118.42,0 -221.91,-38.82 -309.49,-115.42 -88.56,-76.62 -132.36,-184.1 -132.36,-322.43 0,-120.42 41.8,-222.9 126.38,-307.48 84.58,-84.58 187.08,-126.4 309.49,-126.4 122.39,0 225.9,41.81 312.47,126.4 86.57,84.58 129.38,187.06 129.38,307.48 0,136.33 -43.8,243.81 -130.37,321.42 -87.58,77.62 -189.08,116.43 -305.5,116.43zm-417.23 -4030.74c112.14,-112.14 248.02,-167.56 410.28,-167.56 162.26,0 299.46,55.42 414.22,167.56 369.05,360.47 51.78,2668.95 -101.77,2806.62 -87.58,77.62 -189.08,116.42 -305.5,116.42 -118.42,0 -221.91,-38.8 -309.49,-115.41 -156.87,-135.75 -469.02,-2446.35 -107.75,-2807.63z"/>
  </g>
  <path class="fil1" d="M5793.69 1218.13c-1231.75,95.72 -2337.96,635.29 -3158.16,1457.89 -803.14,805.49 -1331.84,1882.29 -1435.58,3079.36 -123.61,-20.72 -249.54,-35.33 -373.81,-45.53 -20.32,-1.67 -42.74,-3.45 -66.77,-5.19 115.12,-1298.96 689.78,-2467.15 1561.56,-3341.5 888.59,-891.19 2086.08,-1477.2 3420.28,-1585.4 1.29,17.14 2.6,33.35 3.83,48.39 10.69,130.35 26.28,262.57 48.64,391.99zm-4599.27 5335.07c89.72,1237.41 633.57,2349.64 1466.27,3173.07 818.15,809.03 1914.8,1338.47 3133.01,1433.38 -22.37,129.45 -37.96,261.68 -48.65,392.09 -1.25,15.09 -2.52,31.34 -3.83,48.53 -1319.76,-106.55 -2507.13,-681.28 -3393.39,-1557.67 -901.86,-891.81 -1492.33,-2096.74 -1594.07,-3439.17 25.87,-1.83 49.96,-3.74 71.7,-5.52 122.66,-10.04 246.9,-24.44 368.96,-44.71zm5389.97 4606.55c818.32,-63.63 1581.18,-323.22 2241.61,-731.48 45.01,71.37 98.22,138.3 159.27,199.36l137.8 137.8c-728.55,464.22 -1575.5,760.79 -2486.19,834.69 -1.28,-16.87 -2.54,-32.84 -3.75,-47.69 -10.69,-130.62 -26.33,-263.01 -48.73,-392.67zm3844.09 -2316.5c425.49,-672.3 694.16,-1452.65 755,-2290.05 122.04,20.28 246.28,34.67 368.94,44.71 21.77,1.78 45.89,3.67 71.83,5.52 -70.47,931.41 -377.04,1797.53 -860.45,2538.91l-146.62 -146.62c-57.99,-57.99 -121.3,-108.91 -188.7,-152.47zm749.47 -3087.87c-104.65,-1209.6 -643.65,-2295.74 -1460.77,-3103.76 -818.1,-808.99 -1914.69,-1338.43 -3132.82,-1433.37 22.44,-129.68 38.07,-262.13 48.76,-392.78 1.21,-14.9 2.49,-30.92 3.77,-47.83 1319.66,106.61 2506.94,681.31 3393.15,1557.65 886.21,876.32 1471.74,2054.99 1588.35,3369.39 -24,1.73 -46.35,3.5 -66.64,5.17 -124.25,10.2 -250.21,24.82 -373.8,45.53z"/>
  <path class="fil1" d="M12295.71 5950.51c54.99,54.99 82.17,121.63 82.17,201.21 0,79.57 -27.18,146.86 -82.17,203.13 -176.78,180.99 -1308.86,25.4 -1376.37,-49.9 -38.07,-42.95 -57.1,-92.74 -57.1,-149.82 0,-58.07 19.03,-108.82 56.6,-151.76 66.58,-76.94 1199.7,-230.01 1376.88,-52.85zm-6309.99 -5868.34c54.99,-54.99 121.63,-82.17 201.21,-82.17 79.57,0 146.86,27.18 203.13,82.17 180.99,176.78 25.4,1308.86 -49.9,1376.37 -42.95,38.07 -92.74,57.1 -149.82,57.1 -58.07,0 -108.82,-19.03 -151.76,-56.6 -76.94,-66.58 -230.01,-1199.7 -52.85,-1376.88zm-5903.54 5868.34c-54.99,54.99 -82.17,121.63 -82.17,201.21 0,79.57 27.18,146.86 82.17,203.13 176.78,180.99 1308.86,25.4 1376.37,-49.9 38.07,-42.95 57.1,-92.74 57.1,-149.82 0,-58.07 -19.03,-108.82 -56.6,-151.76 -66.58,-76.94 -1199.7,-230.01 -1376.88,-52.85zm5903.54 6345.2c54.99,54.99 121.63,82.17 201.21,82.17 79.57,0 146.86,-27.18 203.13,-82.17 180.99,-176.78 25.4,-1308.86 -49.9,-1376.37 -42.95,-38.07 -92.74,-57.1 -149.82,-57.1 -58.07,0 -108.82,19.03 -151.76,56.6 -76.94,66.58 -230.01,1199.7 -52.85,1376.88z"/>
 </g>
</svg>
